<svg xmlns="http://www.w3.org/2000/svg" viewBox="0 0 939.99 719.22"><defs><style>@keyframes fade{0%,to{transform:translate(0,0)}50%{transform:translate(-52px,150px)}}path#fader{animation-name:fade;animation-duration:5s;animation-iteration-count:infinite}.cls-1{fill:#fff}</style></defs><title>media2</title><g id="Layer_2" data-name="Layer 2"><g id="Layer_1-2" data-name="Layer 1"><path class="cls-1" d="M88.16 545.11a86.94 86.94 0 0 1-60.85-24.72C10.93 504.48 1.9 483.66 1.9 461.75v-73.27a7.5 7.5 0 0 1 15 0v73.27c0 37 32.47 68.2 71 68.36l19.38-1.52h.59c39.29 0 71.26-30 71.26-66.81v-73.3a7.5 7.5 0 0 1 15 0v73.27c0 45-38.53 81.66-86 81.81l-19.39 1.52zM740.6 718.79l-477-168.72a7.5 7.5 0 0 1-4.6-9.57L448.37 5a7.5 7.5 0 0 1 9.57-4.57L935 169.15a7.5 7.5 0 0 1 4.57 9.57l-189.4 535.5a7.5 7.5 0 0 1-9.57 4.57zm-465-180.36l462.9 163.71 184.41-521.35L460 17.07z"/><path class="cls-1" d="M572 598.69a7.5 7.5 0 0 1-4.57-9.57l97.36-275.29a7.5 7.5 0 1 1 14.14 5l-97.37 275.29a7.5 7.5 0 0 1-9.56 4.57zm138.56-393.3a29 29 0 1 1 37-17.67 29 29 0 0 1-37 17.67zm14.34-40.54a14 14 0 1 0 8.53 17.87 14 14 0 0 0-8.53-17.87zM685.55 276.1a29 29 0 1 1 37-17.67 29 29 0 0 1-37 17.67zm14.34-40.54a14 14 0 1 0 8.53 17.87 14 14 0 0 0-8.53-17.87z"/><path id="fader" class="cls-1" d="M666.4 433.73l-64.11-22.67a7.5 7.5 0 0 1-4.57-9.57l15.67-44.31a7.5 7.5 0 0 1 9.57-4.57l64.11 22.67a7.5 7.5 0 0 1 4.57 9.57L676 429.16a7.5 7.5 0 0 1-9.6 4.57zm-52-34.31l50 17.67 10.6-30.17-50-17.67z"/><path class="cls-1" d="M678.52 636.37a7.5 7.5 0 0 1-4.52-9.57l97.36-275.29a7.5 7.5 0 1 1 14.14 5L688.09 631.8a7.5 7.5 0 0 1-9.57 4.57zm138.57-393.3a29 29 0 1 1 37-17.67 29 29 0 0 1-37 17.67zm14.34-40.54A14 14 0 1 0 840 220.4a14 14 0 0 0-8.57-17.87zm-39.34 111.25a29 29 0 1 1 37-17.67 29 29 0 0 1-37 17.67zm14.34-40.54A14 14 0 1 0 815 291.1a14 14 0 0 0-8.58-17.86z"/><path class="cls-1" d="M740.59 562.86l-64.11-22.67a7.5 7.5 0 0 1-4.57-9.57l15.67-44.31a7.5 7.5 0 0 1 9.57-4.57l64.11 22.67a7.5 7.5 0 0 1 4.57 9.57l-15.67 44.31a7.5 7.5 0 0 1-9.57 4.57zm-52-34.31l50 17.67 10.6-30.22-50-17.67zm-325.9-3.88a7.5 7.5 0 0 1-4.57-9.57l97.36-275.29a7.5 7.5 0 1 1 14.14 5L372.27 520.1a7.5 7.5 0 0 1-9.58 4.57z"/><path class="cls-1" d="M405.42 505.84l-64.11-22.67a7.5 7.5 0 0 1-4.57-9.57l15.67-44.31a7.5 7.5 0 0 1 9.57-4.57l64.11 22.67a7.5 7.5 0 0 1 4.57 9.57L415 501.27a7.5 7.5 0 0 1-9.58 4.57zm-52-34.31l50 17.67L414 459l-50-17.67zm115.81 90.82a7.5 7.5 0 0 1-4.57-9.57L562 277.49a7.5 7.5 0 0 1 14.14 5L478.8 557.78a7.5 7.5 0 0 1-9.57 4.57zM607.8 169a29 29 0 1 1 37-17.67 29 29 0 0 1-37 17.67zm14.34-40.54a14 14 0 1 0 8.53 17.87 14 14 0 0 0-8.54-17.82zm-39.35 111.29a29 29 0 1 1 37-17.67 29 29 0 0 1-37 17.67zm14.34-40.54a14 14 0 1 0 8.53 17.87 14 14 0 0 0-8.53-17.86zm-95.87-67.84a29 29 0 1 1 37-17.67 29 29 0 0 1-37 17.67zm14.34-40.54a14 14 0 1 0 8.53 17.87 14 14 0 0 0-8.53-17.87zm-39.34 111.25a29 29 0 1 1 37-17.67 29 29 0 0 1-37 17.67zm14.34-40.54a14 14 0 1 0 8.53 17.87 14 14 0 0 0-8.54-17.87z"/><path class="cls-1" d="M538.29 469l-64.11-22.67a7.5 7.5 0 0 1-4.57-9.57l15.67-44.31a7.5 7.5 0 0 1 9.57-4.57L559 410.59a7.5 7.5 0 0 1 4.57 9.57l-15.67 44.31a7.5 7.5 0 0 1-9.61 4.53zm-52-34.31l50 17.67 10.67-30.17-50-17.67zM98 518.11a70.94 70.94 0 0 1-70.86-70.86v-135.3a70.86 70.86 0 1 1 141.72 0v135.3A70.94 70.94 0 0 1 98 518.11zm0-262a55.92 55.92 0 0 0-55.86 55.86v135.3a55.86 55.86 0 1 0 111.72 0V311.95A55.92 55.92 0 0 0 98 256.09zm0 409c-24.92 0-48.44-3.09-66.25-8.69C5.51 648.15 0 637 0 629.11 0 606.7 42.84 596 79.52 593.69a7.5 7.5 0 0 1 8 7.49v13.94h21v-13.95a7.5 7.5 0 0 1 8-7.49C153.16 596 196 606.7 196 629.11c0 7.9-5.51 19-31.75 27.31-17.81 5.58-41.33 8.69-66.25 8.69zm-25.5-55.83C31.68 613.09 15 624.6 15 629.11c0 6.28 28.24 21 83 21s83-14.72 83-21c0-4.51-16.68-16-57.5-19.83v13.33a7.5 7.5 0 0 1-7.5 7.5H80a7.5 7.5 0 0 1-7.5-7.5z"/><path class="cls-1" d="M116 630.11H80a7.5 7.5 0 0 1-7.5-7.5v-85a7.5 7.5 0 0 1 7.5-7.5h36a7.5 7.5 0 0 1 7.5 7.5v85a7.5 7.5 0 0 1-7.5 7.5zm-28.5-15h21v-70h-21zm10.77-270h-59a7.5 7.5 0 0 1 0-15h59a7.5 7.5 0 0 1 0 15zm0 30.67h-59a7.5 7.5 0 0 1 0-15h59a7.5 7.5 0 0 1 0 15zm0 30.66h-59a7.5 7.5 0 0 1 0-15h59a7.5 7.5 0 0 1 0 15zm0 30.67h-59a7.5 7.5 0 0 1 0-15h59a7.5 7.5 0 0 1 0 15z"/></g></g></svg>