<svg xmlns="http://www.w3.org/2000/svg" viewBox="0 0 2380 928.56"><defs><style>@keyframes shakea{0%,1000%{transform:rotate(0deg) translateX(0) translateY(0)}50%{transform:translateX(-7px) rotate(-2deg) translateY(3px)}}@keyframes shakeb{0%,1000%{transform:rotate(0deg) translateX(0)}50%{transform:translateX(5px) rotate(1deg)}}path:first-of-type{animation-name:shakea;animation-duration:2s;animation-iteration-count:infinite}path#lasttree{animation-name:shakeb;animation-duration:2s;animation-iteration-count:infinite}.cls-1{fill:#969696}.cls-2,.cls-3{fill:none}.cls-2{stroke:#969696;stroke-linecap:round;stroke-linejoin:round;stroke-width:15px}</style></defs><title>socs1</title><g id="Layer_2" data-name="Layer 2"><g id="Layer_1-2" data-name="Layer 1"><path class="cls-1" d="M208.93 653.31C93.72 653.31 0 559.59 0 444.38A209.39 209.39 0 0 1 101.73 265a211.58 211.58 0 0 1-1.14-21.84c0-115.2 93.72-208.93 208.93-208.93A208.32 208.32 0 0 1 466 104.77a127.68 127.68 0 0 1 64.59-17.44c69.59 0 121.86 44.5 127.1 108.21a8.29 8.29 0 1 1-16.53 1.36c-2.26-27.43-14.27-50.83-34.74-67.67-19.85-16.33-46.78-25.32-75.83-25.32a111.13 111.13 0 0 0-61.67 18.57 8.29 8.29 0 0 1-11-1.63 191.85 191.85 0 0 0-148.43-70c-106.06 0-192.35 86.29-192.35 192.35a195 195 0 0 0 1.64 25.2 8.29 8.29 0 0 1-4.15 8.3 192.78 192.78 0 0 0-98.05 167.68c0 106.06 86.29 192.35 192.35 192.35a192.89 192.89 0 0 0 49.28-6.39 8.29 8.29 0 1 1 4.24 16 209.5 209.5 0 0 1-53.52 6.97zm337.2 34.53c-1.85 0-3.74-.05-5.84-.11-2.71-.07-5.79-.16-9.69-.16s-7.73-.12-12.08-.37a8.29 8.29 0 0 1 .94-16.56c4 .23 7.67.34 11.14.34 4.12 0 7.32.09 10.14.16 8.06.22 11.4.31 21.65-2.15a8.29 8.29 0 0 1 3.86 16.13c-9.3 2.25-14.51 2.72-20.12 2.72z"/><path class="cls-1" d="M1684.87 920.83H956.75a8.29 8.29 0 1 1 0-16.58h719.82V300.68H581.64v603.57h39.06a8.29 8.29 0 0 1 0 16.58h-47.35a8.29 8.29 0 0 1-8.29-8.29V292.39a8.29 8.29 0 0 1 8.29-8.29h1111.52a8.29 8.29 0 0 1 8.29 8.29v620.15a8.29 8.29 0 0 1-8.29 8.29z"/><path class="cls-1" d="M1130 920.83h-120.19a8.29 8.29 0 0 1-8.29-8.29V674.31a8.29 8.29 0 0 1 8.29-8.29H1130a8.29 8.29 0 0 1 8.29 8.29v238.23a8.29 8.29 0 0 1-8.29 8.29zm-111.9-16.58h103.63V682.61H1018.1z"/><path class="cls-1" d="M1250.25 920.83H1130a8.29 8.29 0 0 1-8.29-8.29V674.31A8.29 8.29 0 0 1 1130 666h120.22a8.29 8.29 0 0 1 8.29 8.29v238.25a8.29 8.29 0 0 1-8.26 8.29zm-111.93-16.58H1242V682.61h-103.68z"/><path class="cls-1" d="M1227 897l-73.51-.06a8.29 8.29 0 0 1-8.28-8.3l.16-191.2a8.29 8.29 0 0 1 8.29-8.28l73.51.06a8.29 8.29 0 0 1 8.28 8.3l-.16 191.2A8.29 8.29 0 0 1 1227 897zm-65.21-16.64h56.93l.15-174.62h-56.93zM1106.46 897l-73.51-.06a8.29 8.29 0 0 1-8.28-8.3l.16-191.2a8.29 8.29 0 0 1 8.29-8.28l73.51.06a8.29 8.29 0 0 1 8.28 8.3l-.16 191.2a8.29 8.29 0 0 1-8.29 8.28zm-65.21-16.64h56.93l.15-174.62h-56.93zm233.87-198.31H983.19a8.29 8.29 0 0 1-1.89-16.36l146-34.27a8.32 8.32 0 0 1 3.79 0L1277 665.69a8.29 8.29 0 0 1-1.9 16.36zm-220.32-16.58h148.75L1129.2 648zm465.32-76.64h-155.06a19.77 19.77 0 0 1-19.75-19.75V375.7a19.77 19.77 0 0 1 19.75-19.75h155.07a19.77 19.77 0 0 1 19.75 19.75v193.38a19.77 19.77 0 0 1-19.76 19.75zm-155.07-216.3a3.17 3.17 0 0 0-3.16 3.16v193.39a3.17 3.17 0 0 0 3.16 3.16h155.07a3.17 3.17 0 0 0 3.16-3.16V375.7a3.17 3.17 0 0 0-3.16-3.16z"/><path class="cls-1" d="M1429.88 564.88h-52a8.29 8.29 0 0 1-8.29-8.29v-72.41a8.29 8.29 0 0 1 8.29-8.29h52a8.29 8.29 0 0 1 8.29 8.29v72.41a8.29 8.29 0 0 1-8.29 8.29zm-43.66-16.58h35.37v-55.83h-35.37zm121.04 16.58h-52a8.29 8.29 0 0 1-8.29-8.29v-72.41a8.29 8.29 0 0 1 8.29-8.29h52a8.29 8.29 0 0 1 8.29 8.29v72.41a8.29 8.29 0 0 1-8.29 8.29zm-43.66-16.58h35.4v-55.83h-35.37zm-33.72-78.49h-52a8.29 8.29 0 0 1-8.29-8.29v-72.41a8.29 8.29 0 0 1 8.29-8.29h52a8.29 8.29 0 0 1 8.29 8.29v72.41a8.29 8.29 0 0 1-8.29 8.29zm-43.66-16.58h35.37V397.4h-35.37zm121.04 16.58h-52a8.29 8.29 0 0 1-8.29-8.29v-72.41a8.29 8.29 0 0 1 8.29-8.29h52a8.29 8.29 0 0 1 8.29 8.29v72.41a8.29 8.29 0 0 1-8.29 8.29zm-43.66-16.58h35.4V397.4h-35.37zm56.52 425.22h-155.06a19.77 19.77 0 0 1-19.75-19.75V665.32a19.77 19.77 0 0 1 19.75-19.75h155.07a19.77 19.77 0 0 1 19.75 19.75v193.39a19.77 19.77 0 0 1-19.76 19.74zm-155.07-216.3a3.17 3.17 0 0 0-3.16 3.16v193.4a3.17 3.17 0 0 0 3.16 3.16h155.07a3.17 3.17 0 0 0 3.16-3.16V665.32a3.17 3.17 0 0 0-3.16-3.16z"/><path class="cls-1" d="M1429.88 854.5h-52a8.29 8.29 0 0 1-8.29-8.29V773.8a8.29 8.29 0 0 1 8.29-8.29h52a8.29 8.29 0 0 1 8.29 8.29v72.41a8.29 8.29 0 0 1-8.29 8.29zm-43.66-16.58h35.37v-55.83h-35.37zm121.04 16.58h-52a8.29 8.29 0 0 1-8.29-8.29V773.8a8.29 8.29 0 0 1 8.29-8.29h52a8.29 8.29 0 0 1 8.29 8.29v72.41a8.29 8.29 0 0 1-8.29 8.29zm-43.66-16.58h35.4v-55.83h-35.37zm-33.72-78.49h-52a8.29 8.29 0 0 1-8.29-8.29v-72.4a8.29 8.29 0 0 1 8.29-8.29h52a8.29 8.29 0 0 1 8.29 8.29v72.41a8.29 8.29 0 0 1-8.29 8.28zm-43.66-16.58h35.37V687h-35.37zm121.04 16.58h-52a8.29 8.29 0 0 1-8.29-8.29v-72.4a8.29 8.29 0 0 1 8.29-8.29h52a8.29 8.29 0 0 1 8.29 8.29v72.41a8.29 8.29 0 0 1-8.29 8.28zm-43.66-16.58h35.4V687h-35.37zm-258.52-154.02H1050a19.77 19.77 0 0 1-19.75-19.75V375.7a19.77 19.77 0 0 1 19.75-19.75h155.07a19.77 19.77 0 0 1 19.75 19.75v193.38a19.77 19.77 0 0 1-19.74 19.75zM1050 372.53a3.17 3.17 0 0 0-3.16 3.16v193.39a3.17 3.17 0 0 0 3.16 3.16h155.07a3.17 3.17 0 0 0 3.16-3.16V375.7a3.17 3.17 0 0 0-3.16-3.16z"/><path class="cls-1" d="M1114.83 564.88h-52a8.29 8.29 0 0 1-8.29-8.29v-72.41a8.29 8.29 0 0 1 8.29-8.29h52a8.29 8.29 0 0 1 8.29 8.29v72.41a8.29 8.29 0 0 1-8.29 8.29zm-43.66-16.58h35.37v-55.83h-35.37zm121.04 16.58h-52a8.29 8.29 0 0 1-8.29-8.29v-72.41a8.29 8.29 0 0 1 8.29-8.29h52a8.29 8.29 0 0 1 8.29 8.29v72.41a8.29 8.29 0 0 1-8.29 8.29zm-43.66-16.58h35.37v-55.83h-35.37zm-33.72-78.49h-52a8.29 8.29 0 0 1-8.29-8.29v-72.41a8.29 8.29 0 0 1 8.29-8.29h52a8.29 8.29 0 0 1 8.29 8.29v72.41a8.29 8.29 0 0 1-8.29 8.29zm-43.66-16.58h35.37V397.4h-35.37zm121.04 16.58h-52a8.29 8.29 0 0 1-8.29-8.29v-72.41a8.29 8.29 0 0 1 8.29-8.29h52a8.29 8.29 0 0 1 8.29 8.29v72.41a8.29 8.29 0 0 1-8.29 8.29zm-43.66-16.58h35.37V397.4h-35.37zM884.5 589.93H729.43a19.77 19.77 0 0 1-19.75-19.75V376.8a19.77 19.77 0 0 1 19.75-19.75H884.5a19.77 19.77 0 0 1 19.75 19.75v193.39a19.77 19.77 0 0 1-19.75 19.74zM729.43 373.64a3.17 3.17 0 0 0-3.16 3.16v193.39a3.17 3.17 0 0 0 3.16 3.16H884.5a3.17 3.17 0 0 0 3.16-3.16V376.8a3.17 3.17 0 0 0-3.16-3.16z"/><path class="cls-1" d="M794.25 566h-52a8.29 8.29 0 0 1-8.29-8.29v-72.42a8.29 8.29 0 0 1 8.34-8.29h52a8.29 8.29 0 0 1 8.29 8.29v72.41a8.29 8.29 0 0 1-8.34 8.3zm-43.66-16.6H786v-55.82h-35.41zM871.63 566h-52a8.29 8.29 0 0 1-8.29-8.29v-72.42a8.29 8.29 0 0 1 8.29-8.29h52a8.29 8.29 0 0 1 8.29 8.29v72.41a8.29 8.29 0 0 1-8.29 8.3zM828 549.4h35.37v-55.82H828zm-33.75-78.48h-52a8.29 8.29 0 0 1-8.29-8.29v-72.41a8.29 8.29 0 0 1 8.29-8.29h52a8.29 8.29 0 0 1 8.29 8.29v72.41a8.29 8.29 0 0 1-8.29 8.29zm-43.66-16.58H786v-55.83h-35.41zm121.04 16.58h-52a8.29 8.29 0 0 1-8.29-8.29v-72.41a8.29 8.29 0 0 1 8.29-8.29h52a8.29 8.29 0 0 1 8.29 8.29v72.41a8.29 8.29 0 0 1-8.29 8.29zM828 454.33h35.37v-55.82H828zm56.5 425.23H729.43a19.77 19.77 0 0 1-19.75-19.75V666.42a19.77 19.77 0 0 1 19.75-19.75H884.5a19.77 19.77 0 0 1 19.75 19.75v193.39a19.77 19.77 0 0 1-19.75 19.75zm-155.07-216.3a3.17 3.17 0 0 0-3.16 3.16v193.39a3.17 3.17 0 0 0 3.16 3.16H884.5a3.17 3.17 0 0 0 3.16-3.16V666.42a3.17 3.17 0 0 0-3.16-3.16z"/><path class="cls-1" d="M794.25 855.61h-52a8.29 8.29 0 0 1-8.29-8.29v-72.41a8.29 8.29 0 0 1 8.29-8.29h52a8.29 8.29 0 0 1 8.29 8.29v72.41a8.29 8.29 0 0 1-8.29 8.29zM750.59 839H786v-55.8h-35.41zm121.04 16.61h-52a8.29 8.29 0 0 1-8.29-8.29v-72.41a8.29 8.29 0 0 1 8.29-8.29h52a8.29 8.29 0 0 1 8.29 8.29v72.41a8.29 8.29 0 0 1-8.29 8.29zM828 839h35.37v-55.8H828zm-33.75-78.46h-52a8.29 8.29 0 0 1-8.29-8.29v-72.41a8.29 8.29 0 0 1 8.29-8.29h52a8.29 8.29 0 0 1 8.29 8.29v72.41a8.29 8.29 0 0 1-8.29 8.29zM750.59 744H786v-55.87h-35.41zm121.04 16.54h-52a8.29 8.29 0 0 1-8.29-8.29v-72.41a8.29 8.29 0 0 1 8.29-8.29h52a8.29 8.29 0 0 1 8.29 8.29v72.41a8.29 8.29 0 0 1-8.29 8.29zM828 744h35.37v-55.87H828zM325 928.56a8.29 8.29 0 0 1-8.28-8l-15-434.19a8.29 8.29 0 0 1 16-3.26l25 65.1 18.87-180.27a8.29 8.29 0 0 1 16.41-.58l37.78 213.37 56.31-123a8.29 8.29 0 0 1 15.91 3.58l-10 459.14a8.29 8.29 0 1 1-16.58-.36l9.11-419-50.61 110.71a8.29 8.29 0 0 1-15.7-2l-32.15-181.53-16.32 156a8.29 8.29 0 0 1-16 2.11l-19.7-51.23L333.33 920a8.29 8.29 0 0 1-8 8.57z"/><path class="cls-3" d="M1237.53 16.58h107.79v48.09h-107.79zm0 64.67h107.79v42.56h-107.79z"/><path class="cls-3" d="M1353.6 140.39h-124.37a8.29 8.29 0 0 1-8.29-8.29V81.25H752.32L590.45 283h1077L1505.53 81.25H1361.9v50.85a8.29 8.29 0 0 1-8.3 8.29z"/><path class="cls-1" d="M1691.15 286.09L1516 67.77a8.29 8.29 0 0 0-6.47-3.1H1361.9v16.58h143.64L1667.4 283h-1077L752.32 81.25h468.63V64.67H748.34a8.29 8.29 0 0 0-6.47 3.1L566.7 286.09a8.29 8.29 0 0 0 6.47 13.48h1111.51a8.29 8.29 0 0 0 6.47-13.48z"/><path class="cls-1" d="M1237.53 16.58h107.79v48.09h16.58V8.29a8.29 8.29 0 0 0-8.3-8.29h-124.37a8.29 8.29 0 0 0-8.29 8.29v56.38h16.58zm107.78 107.23h-107.78V81.25h-16.58v50.85a8.29 8.29 0 0 0 8.29 8.29h124.36a8.29 8.29 0 0 0 8.29-8.29V81.25h-16.58zm0-59.14h16.58v16.58h-16.58zm-124.37 0h16.58v16.58h-16.58zm644.48 635.07a229.91 229.91 0 0 1-187.32-97 8.29 8.29 0 1 1 13.53-9.58 213.09 213.09 0 0 0 206.78 87.42A8.29 8.29 0 0 1 1901 697a231.79 231.79 0 0 1-35.58 2.74z"/><path class="cls-1" id="lasttree" d="M2150.62 699.74h-3.43a8.29 8.29 0 0 1 .12-16.58h3.32c117.34 0 212.8-95.46 212.8-212.8a210.55 210.55 0 0 0-22.72-95.75 8.29 8.29 0 0 1 0-7.47 210.55 210.55 0 0 0 22.72-95.75c0-117.34-95.46-212.8-212.8-212.8a212.83 212.83 0 0 0-193.81 124.82 8.29 8.29 0 0 1-13.15 2.68A115 115 0 0 0 1751 270.83a116.67 116.67 0 0 0 .85 14 8.29 8.29 0 0 1-3.66 7.91 213.1 213.1 0 0 0-56.75 55.05 8.29 8.29 0 1 1-13.55-9.56 229.53 229.53 0 0 1 57-56.49c-.3-3.64-.45-7.3-.45-10.92 0-72.54 59-131.55 131.55-131.55a131.13 131.13 0 0 1 80.47 27.48A229.4 229.4 0 0 1 2150.62 42C2277.1 42 2380 144.9 2380 271.38a226.93 226.93 0 0 1-22.65 99.49 226.93 226.93 0 0 1 22.65 99.49c0 126.48-102.9 229.38-229.38 229.38z"/><path class="cls-1" d="M2102.68 926.35a8.29 8.29 0 0 1-8.26-7.66l-23.85-312.44-6.7-99.73-40.36 122a8.29 8.29 0 0 1-16-1l-33.54-166L1950 918.5a8.29 8.29 0 0 1-16.56-.87l27.43-522.32a8.29 8.29 0 0 1 16.41-1.21l40.32 199.54 43.85-132.53a8.29 8.29 0 0 1 16.14 2l9.54 141.91L2111 917.43a8.29 8.29 0 0 1-7.64 8.9z"/></g></g></svg>