<svg xmlns="http://www.w3.org/2000/svg" viewBox="0 0 939.99 719.22"><defs><style>
@keyframes fade{
  0%{
  transform: translate(0,0)
  }
  50%{
  transform: translate(-52px,150px)
  }
  100%{
  transform: translate(0,0)
  }
}

path#fader{
  animation-name: fade;
  animation-duration: 5s;
  animation-iteration-count: infinite;
}
  .cls-1{fill:#fff;}</style></defs><title>media2</title><g id="Layer_2" data-name="Layer 2"><g id="Layer_1-2" data-name="Layer 1">
<path class="cls-1" d="M88.16,545.11a86.94,86.94,0,0,1-60.85-24.72C10.93,504.48,1.9,483.66,1.9,461.75V388.48a7.5,7.5,0,0,1,15,0v73.27c0,37,32.47,68.2,71,68.36l19.38-1.52.59,0c39.29,0,71.26-30,71.26-66.81V388.48a7.5,7.5,0,0,1,15,0v73.27c0,45-38.53,81.66-86,81.81l-19.39,1.52Z"/>
<path class="cls-1" d="M740.6,718.79l-477-168.72A7.5,7.5,0,0,1,259,540.5L448.37,5A7.5,7.5,0,0,1,457.94.43L935,169.15a7.5,7.5,0,0,1,4.57,9.57L750.17,714.22A7.5,7.5,0,0,1,740.6,718.79Zm-465-180.36,462.9,163.71L922.91,180.79,460,17.07Z"/>
<path class="cls-1" d="M572,598.69a7.5,7.5,0,0,1-4.57-9.57l97.36-275.29a7.5,7.5,0,1,1,14.14,5L581.56,594.12A7.5,7.5,0,0,1,572,598.69Z"/>
<path class="cls-1" d="M710.56,205.39a29,29,0,1,1,37-17.67A29,29,0,0,1,710.56,205.39Zm14.34-40.54a14,14,0,1,0,8.53,17.87A14,14,0,0,0,724.9,164.85Z"/>
<path class="cls-1" d="M685.55,276.1a29,29,0,1,1,37-17.67A29,29,0,0,1,685.55,276.1Zm14.34-40.54a14,14,0,1,0,8.53,17.87A14,14,0,0,0,699.89,235.56Z"/>


<!-- THIS ONE -->
<path id="fader" class="cls-1" d="M666.4,433.73l-64.11-22.67a7.5,7.5,0,0,1-4.57-9.57l15.67-44.31a7.5,7.5,0,0,1,9.57-4.57l64.11,22.67a7.5,7.5,0,0,1,4.57,9.57L676,429.16A7.5,7.5,0,0,1,666.4,433.73Zm-52-34.31,50,17.67L675,386.92l-50-17.67Z"/>


<path class="cls-1" d="M678.52,636.37A7.5,7.5,0,0,1,674,626.8l97.36-275.29a7.5,7.5,0,1,1,14.14,5L688.09,631.8A7.5,7.5,0,0,1,678.52,636.37Z"/><path class="cls-1" d="M817.09,243.07a29,29,0,1,1,37-17.67A29,29,0,0,1,817.09,243.07Zm14.34-40.54A14,14,0,1,0,840,220.4,14,14,0,0,0,831.43,202.53Z"/><path class="cls-1" d="M792.09,313.78a29,29,0,1,1,37-17.67A29,29,0,0,1,792.09,313.78Zm14.34-40.54A14,14,0,1,0,815,291.1,14,14,0,0,0,806.42,273.24Z"/><path class="cls-1" d="M740.59,562.86l-64.11-22.67a7.5,7.5,0,0,1-4.57-9.57l15.67-44.31a7.5,7.5,0,0,1,9.57-4.57l64.11,22.67a7.5,7.5,0,0,1,4.57,9.57l-15.67,44.31A7.5,7.5,0,0,1,740.59,562.86Zm-52-34.31,50,17.67L749.19,516l-50-17.67Z"/><path class="cls-1" d="M362.69,524.67a7.5,7.5,0,0,1-4.57-9.57l97.36-275.29a7.5,7.5,0,1,1,14.14,5L372.27,520.1A7.5,7.5,0,0,1,362.69,524.67Z"/><path class="cls-1" d="M405.42,505.84l-64.11-22.67a7.5,7.5,0,0,1-4.57-9.57l15.67-44.31a7.5,7.5,0,0,1,9.57-4.57l64.11,22.67a7.5,7.5,0,0,1,4.57,9.57L415,501.27A7.5,7.5,0,0,1,405.42,505.84Zm-52-34.31,50,17.67L414,459l-50-17.67Z"/><path class="cls-1" d="M469.23,562.35a7.5,7.5,0,0,1-4.57-9.57L562,277.49a7.5,7.5,0,0,1,14.14,5L478.8,557.78A7.5,7.5,0,0,1,469.23,562.35Z"/><path class="cls-1" d="M607.8,169a29,29,0,1,1,37-17.67A29,29,0,0,1,607.8,169Zm14.34-40.54a14,14,0,1,0,8.53,17.87A14,14,0,0,0,622.13,128.51Z"/><path class="cls-1" d="M582.79,239.75a29,29,0,1,1,37-17.67A29,29,0,0,1,582.79,239.75Zm14.34-40.54a14,14,0,1,0,8.53,17.87A14,14,0,0,0,597.13,199.22Z"/><path class="cls-1" d="M501.26,131.37a29,29,0,1,1,37-17.67A29,29,0,0,1,501.26,131.37ZM515.6,90.83a14,14,0,1,0,8.53,17.87A14,14,0,0,0,515.6,90.83Z"/><path class="cls-1" d="M476.26,202.08a29,29,0,1,1,37-17.67A29,29,0,0,1,476.26,202.08Zm14.34-40.54a14,14,0,1,0,8.53,17.87A14,14,0,0,0,490.59,161.54Z"/><path class="cls-1" d="M538.29,469l-64.11-22.67a7.5,7.5,0,0,1-4.57-9.57l15.67-44.31a7.5,7.5,0,0,1,9.57-4.57L559,410.59a7.5,7.5,0,0,1,4.57,9.57l-15.67,44.31A7.5,7.5,0,0,1,538.29,469Zm-52-34.31,50,17.67,10.67-30.17-50-17.67Z"/><path class="cls-1" d="M98,518.11a70.94,70.94,0,0,1-70.86-70.86V311.95a70.86,70.86,0,1,1,141.72,0v135.3A70.94,70.94,0,0,1,98,518.11Zm0-262a55.92,55.92,0,0,0-55.86,55.86v135.3a55.86,55.86,0,1,0,111.72,0V311.95A55.92,55.92,0,0,0,98,256.09Z"/><path class="cls-1" d="M98,665.11c-24.92,0-48.44-3.09-66.25-8.69C5.51,648.15,0,637,0,629.11,0,606.7,42.84,596,79.52,593.69a7.5,7.5,0,0,1,8,7.49v13.94h21V601.17a7.5,7.5,0,0,1,8-7.49C153.16,596,196,606.7,196,629.11c0,7.9-5.51,19-31.75,27.31C146.44,662,122.92,665.11,98,665.11ZM72.5,609.28C31.68,613.09,15,624.6,15,629.11c0,6.28,28.24,21,83,21s83-14.72,83-21c0-4.51-16.68-16-57.5-19.83v13.33a7.5,7.5,0,0,1-7.5,7.5H80a7.5,7.5,0,0,1-7.5-7.5Z"/><path class="cls-1" d="M116,630.11H80a7.5,7.5,0,0,1-7.5-7.5v-85a7.5,7.5,0,0,1,7.5-7.5h36a7.5,7.5,0,0,1,7.5,7.5v85A7.5,7.5,0,0,1,116,630.11Zm-28.5-15h21v-70h-21Z"/><path class="cls-1" d="M98.27,345.11h-59a7.5,7.5,0,0,1,0-15h59a7.5,7.5,0,0,1,0,15Z"/><path class="cls-1" d="M98.27,375.78h-59a7.5,7.5,0,0,1,0-15h59a7.5,7.5,0,0,1,0,15Z"/><path class="cls-1" d="M98.27,406.44h-59a7.5,7.5,0,0,1,0-15h59a7.5,7.5,0,0,1,0,15Z"/><path class="cls-1" d="M98.27,437.11h-59a7.5,7.5,0,0,1,0-15h59a7.5,7.5,0,0,1,0,15Z"/></g></g></svg>
