<svg xmlns="http://www.w3.org/2000/svg" viewBox="0 0 1659.65 1008.17"><defs><style>

@keyframes point {
  0%{
    transform:rotate(0deg)
  }
  50%{
    transform:rotate(20deg)
  }
  100%{
    transform:rotate(0deg)
  }
}

line:last-of-type{
  animation-name: point;
  animation-duration: 4s;
  animation-iteration-count: infinite;
  transform-origin: 100% 100%;
}




  .cls-1{fill:#969696;}.cls-2{fill:none;stroke:#969696;stroke-miterlimit:10;stroke-width:15px;}</style></defs><title>Asset 5</title>


<g id="Layer_2" data-name="Layer 2"><g id="Layer_1-2" data-name="Layer 1"><path class="cls-1" d="M1652.15,624h-913a7.5,7.5,0,1,1,0-15h905.5V15h-993V416a7.5,7.5,0,0,1-15,0V7.5a7.5,7.5,0,0,1,7.5-7.5h1008a7.5,7.5,0,0,1,7.5,7.5v609A7.5,7.5,0,0,1,1652.15,624Z"/><path class="cls-1" d="M183.16,1008.17l-.65,0a7.5,7.5,0,0,1-6.83-8.11l19.08-222.74L99.14,872.91a7.5,7.5,0,0,1-5.3,2.2h0a7.5,7.5,0,0,1-5.3-2.2L2.2,786.58A7.5,7.5,0,0,1,2.2,776L214.85,563.32l5.43-5.56a7.64,7.64,0,1,1,9.18,12.07l-3.95,4L18.11,781.27,93.83,857,198.68,752.15a7.5,7.5,0,0,1,12.78,5.94l-20.83,243.22A7.5,7.5,0,0,1,183.16,1008.17Z"/><path class="cls-1" d="M490.68,570.83a7.5,7.5,0,0,1-2.48-14.58L619.94,463a7.5,7.5,0,1,1,8.66,12.24L496,569.12a7.5,7.5,0,0,1-1.92,1l-1,.33A7.49,7.49,0,0,1,490.68,570.83Z"/><path class="cls-1" d="M528.14,953.5a7.5,7.5,0,0,1-7.46-6.81l-22.5-243a7.5,7.5,0,0,1,.91-4.33l.4-.72a7.51,7.51,0,0,1,2.23-2.49L747.41,522.41l-11.67-16.5A7.5,7.5,0,0,1,748,497.25l16,22.63a7.5,7.5,0,0,1-1.79,10.45L513.48,706.21l22.14,239.1a7.5,7.5,0,0,1-6.78,8.16Q528.49,953.5,528.14,953.5Z"/><path class="cls-1" d="M357.71,589.18c-81.57,0-147.93-66.36-147.93-147.93s66.36-147.93,147.93-147.93,147.93,66.36,147.93,147.93S439.28,589.18,357.71,589.18Zm0-280.87c-73.3,0-132.93,59.63-132.93,132.93s59.63,132.93,132.93,132.93,132.93-59.63,132.93-132.93S431,308.32,357.71,308.32Z"/><path class="cls-1" d="M357.71,548.17a108.5,108.5,0,0,1-107.29-92.4,7.5,7.5,0,0,1,7.42-8.6H457.58a7.5,7.5,0,0,1,7.42,8.6,108.5,108.5,0,0,1-107.29,92.4Zm-90.75-86a93.5,93.5,0,0,0,181.51,0Z"/><path class="cls-1" d="M1526.65,186.5h-340a7.5,7.5,0,0,1,0-15h340a7.5,7.5,0,0,1,0,15Z"/><path class="cls-1" d="M1474.65,246.5h-288a7.5,7.5,0,0,1,0-15h288a7.5,7.5,0,0,1,0,15Z"/><path class="cls-1" d="M1552.65,306.5h-366a7.5,7.5,0,0,1,0-15h366a7.5,7.5,0,0,1,0,15Z"/><path class="cls-1" d="M1516.65,366.5h-330a7.5,7.5,0,0,1,0-15h330a7.5,7.5,0,0,1,0,15Z"/><path class="cls-1" d="M1526.65,426.5h-340a7.5,7.5,0,0,1,0-15h340a7.5,7.5,0,0,1,0,15Z"/><path class="cls-1" d="M911.65,494.5c-100.63,0-182.5-81.87-182.5-182.5S811,129.5,911.65,129.5a7.5,7.5,0,0,1,7.5,7.5V304.5h167.5a7.5,7.5,0,0,1,7.5,7.5C1094.15,412.63,1012.28,494.5,911.65,494.5Zm-7.5-349.83c-88.89,3.94-160,77.49-160,167.33,0,92.36,75.14,167.5,167.5,167.5,89.85,0,163.4-71.11,167.33-160H911.65a7.5,7.5,0,0,1-7.5-7.5Z"/><path class="cls-1" d="M1118.65,273.5h-175a7.5,7.5,0,0,1-7.5-7.5V91a7.5,7.5,0,0,1,7.5-7.5c100.63,0,182.5,81.87,182.5,182.5A7.5,7.5,0,0,1,1118.65,273.5Zm-167.5-15H1111c-3.83-86.4-73.43-156-159.83-159.83Z"/>
<line class="cls-2" x1="695.15" y1="447.5" x2="800" y2="220">
</line>
</g></g></svg>
