<svg xmlns="http://www.w3.org/2000/svg" viewBox="0 0 2380 928.56"><defs><style>

@keyframes shakea{
0%{
  transform: rotate(0deg) translateX(0px) translateY(0px);
}
50%{
  transform: translateX(-7px) rotate(-2deg) translateY(3px);
}
1000%{
  transform: rotate(0deg) translateX(0px) translateY(0px);
}
}

@keyframes shakeb{
0%{
  transform: rotate(0deg) translateX(0px);
}
50%{
  transform: translateX(5px) rotate(1deg)
}
1000%{
  transform: rotate(0deg) translateX(0px);
}
}

path:first-of-type{
animation-name: shakea;
animation-duration: 2s;
animation-iteration-count: infinite;
}


path#lasttree{
animation-name: shakeb;
animation-duration: 2s;
animation-iteration-count: infinite;
}


  .cls-1{fill:#969696;}.cls-2,.cls-3{fill:none;}.cls-2{stroke:#969696;stroke-linecap:round;stroke-linejoin:round;stroke-width:15px;}</style></defs><title>socs1</title><g id="Layer_2" data-name="Layer 2"><g id="Layer_1-2" data-name="Layer 1"><path class="cls-1" d="M208.93,653.31C93.72,653.31,0,559.59,0,444.38A209.39,209.39,0,0,1,101.73,265a211.58,211.58,0,0,1-1.14-21.84c0-115.2,93.72-208.93,208.93-208.93A208.32,208.32,0,0,1,466,104.77a127.68,127.68,0,0,1,64.59-17.44c69.59,0,121.86,44.5,127.1,108.21a8.29,8.29,0,1,1-16.53,1.36c-2.26-27.43-14.27-50.83-34.74-67.67-19.85-16.33-46.78-25.32-75.83-25.32a111.13,111.13,0,0,0-61.67,18.57,8.29,8.29,0,0,1-11-1.63,191.85,191.85,0,0,0-148.43-70c-106.06,0-192.35,86.29-192.35,192.35a195,195,0,0,0,1.64,25.2,8.29,8.29,0,0,1-4.15,8.3A192.78,192.78,0,0,0,16.58,444.38c0,106.06,86.29,192.35,192.35,192.35a192.89,192.89,0,0,0,49.28-6.39,8.29,8.29,0,1,1,4.24,16A209.5,209.5,0,0,1,208.93,653.31Z"/><path class="cls-2" d="M650.52,217.85"/><path class="cls-1" d="M546.13,687.84c-1.85,0-3.74-.05-5.84-.11-2.71-.07-5.79-.16-9.69-.16s-7.73-.12-12.08-.37a8.29,8.29,0,0,1,.94-16.56c4,.23,7.67.34,11.14.34,4.12,0,7.32.09,10.14.16,8.06.22,11.4.31,21.65-2.15a8.29,8.29,0,0,1,3.86,16.13C556.95,687.37,551.74,687.84,546.13,687.84Z"/><path class="cls-1" d="M1684.87,920.83H956.75a8.29,8.29,0,1,1,0-16.58h719.82V300.68H581.64V904.25H620.7a8.29,8.29,0,0,1,0,16.58H573.35a8.29,8.29,0,0,1-8.29-8.29V292.39a8.29,8.29,0,0,1,8.29-8.29H1684.87a8.29,8.29,0,0,1,8.29,8.29V912.54A8.29,8.29,0,0,1,1684.87,920.83Z"/><path class="cls-1" d="M1130,920.83H1009.81a8.29,8.29,0,0,1-8.29-8.29V674.31a8.29,8.29,0,0,1,8.29-8.29H1130a8.29,8.29,0,0,1,8.29,8.29V912.54A8.29,8.29,0,0,1,1130,920.83ZM1018.1,904.25h103.63V682.61H1018.1Z"/><path class="cls-1" d="M1250.25,920.83H1130a8.29,8.29,0,0,1-8.29-8.29V674.31A8.29,8.29,0,0,1,1130,666h120.22a8.29,8.29,0,0,1,8.29,8.29V912.54A8.29,8.29,0,0,1,1250.25,920.83Zm-111.93-16.58H1242V682.61H1138.32Z"/><path class="cls-1" d="M1227,897h0l-73.51-.06a8.29,8.29,0,0,1-8.28-8.3l.16-191.2a8.29,8.29,0,0,1,8.29-8.28h0l73.51.06a8.29,8.29,0,0,1,8.28,8.3l-.16,191.2A8.29,8.29,0,0,1,1227,897Zm-65.21-16.64,56.93,0,.15-174.62-56.93,0Z"/><path class="cls-1" d="M1106.46,897h0l-73.51-.06a8.29,8.29,0,0,1-8.28-8.3l.16-191.2a8.29,8.29,0,0,1,8.29-8.28h0l73.51.06a8.29,8.29,0,0,1,8.28,8.3l-.16,191.2A8.29,8.29,0,0,1,1106.46,897Zm-65.21-16.64,56.93,0,.15-174.62-56.93,0Z"/><path class="cls-1" d="M1275.12,682.05H983.19a8.29,8.29,0,0,1-1.89-16.36l146-34.27a8.32,8.32,0,0,1,3.79,0L1277,665.69a8.29,8.29,0,0,1-1.9,16.36ZM1054.8,665.47h148.75L1129.2,648Z"/><path class="cls-1" d="M1520.12,588.83H1365.06a19.77,19.77,0,0,1-19.75-19.75V375.7a19.77,19.77,0,0,1,19.75-19.75h155.07a19.77,19.77,0,0,1,19.75,19.75V569.08A19.77,19.77,0,0,1,1520.12,588.83Zm-155.07-216.3a3.17,3.17,0,0,0-3.16,3.16V569.08a3.17,3.17,0,0,0,3.16,3.16h155.07a3.17,3.17,0,0,0,3.16-3.16V375.7a3.17,3.17,0,0,0-3.16-3.16Z"/><path class="cls-1" d="M1429.88,564.88h-52a8.29,8.29,0,0,1-8.29-8.29V484.18a8.29,8.29,0,0,1,8.29-8.29h52a8.29,8.29,0,0,1,8.29,8.29v72.41A8.29,8.29,0,0,1,1429.88,564.88Zm-43.66-16.58h35.37V492.47h-35.37Z"/><path class="cls-1" d="M1507.26,564.88h-52a8.29,8.29,0,0,1-8.29-8.29V484.18a8.29,8.29,0,0,1,8.29-8.29h52a8.29,8.29,0,0,1,8.29,8.29v72.41A8.29,8.29,0,0,1,1507.26,564.88Zm-43.66-16.58H1499V492.47h-35.37Z"/><path class="cls-1" d="M1429.88,469.81h-52a8.29,8.29,0,0,1-8.29-8.29V389.11a8.29,8.29,0,0,1,8.29-8.29h52a8.29,8.29,0,0,1,8.29,8.29v72.41A8.29,8.29,0,0,1,1429.88,469.81Zm-43.66-16.58h35.37V397.4h-35.37Z"/><path class="cls-1" d="M1507.26,469.81h-52a8.29,8.29,0,0,1-8.29-8.29V389.11a8.29,8.29,0,0,1,8.29-8.29h52a8.29,8.29,0,0,1,8.29,8.29v72.41A8.29,8.29,0,0,1,1507.26,469.81Zm-43.66-16.58H1499V397.4h-35.37Z"/><path class="cls-1" d="M1520.12,878.45H1365.06a19.77,19.77,0,0,1-19.75-19.75V665.32a19.77,19.77,0,0,1,19.75-19.75h155.07a19.77,19.77,0,0,1,19.75,19.75V858.71A19.77,19.77,0,0,1,1520.12,878.45Zm-155.07-216.3a3.17,3.17,0,0,0-3.16,3.16V858.71a3.17,3.17,0,0,0,3.16,3.16h155.07a3.17,3.17,0,0,0,3.16-3.16V665.32a3.17,3.17,0,0,0-3.16-3.16Z"/><path class="cls-1" d="M1429.88,854.5h-52a8.29,8.29,0,0,1-8.29-8.29V773.8a8.29,8.29,0,0,1,8.29-8.29h52a8.29,8.29,0,0,1,8.29,8.29v72.41A8.29,8.29,0,0,1,1429.88,854.5Zm-43.66-16.58h35.37V782.09h-35.37Z"/><path class="cls-1" d="M1507.26,854.5h-52a8.29,8.29,0,0,1-8.29-8.29V773.8a8.29,8.29,0,0,1,8.29-8.29h52a8.29,8.29,0,0,1,8.29,8.29v72.41A8.29,8.29,0,0,1,1507.26,854.5Zm-43.66-16.58H1499V782.09h-35.37Z"/><path class="cls-1" d="M1429.88,759.43h-52a8.29,8.29,0,0,1-8.29-8.29V678.74a8.29,8.29,0,0,1,8.29-8.29h52a8.29,8.29,0,0,1,8.29,8.29v72.41A8.29,8.29,0,0,1,1429.88,759.43Zm-43.66-16.58h35.37V687h-35.37Z"/><path class="cls-1" d="M1507.26,759.43h-52a8.29,8.29,0,0,1-8.29-8.29V678.74a8.29,8.29,0,0,1,8.29-8.29h52a8.29,8.29,0,0,1,8.29,8.29v72.41A8.29,8.29,0,0,1,1507.26,759.43Zm-43.66-16.58H1499V687h-35.37Z"/><path class="cls-1" d="M1205.08,588.83H1050a19.77,19.77,0,0,1-19.75-19.75V375.7A19.77,19.77,0,0,1,1050,355.95h155.07a19.77,19.77,0,0,1,19.75,19.75V569.08A19.77,19.77,0,0,1,1205.08,588.83ZM1050,372.53a3.17,3.17,0,0,0-3.16,3.16V569.08a3.17,3.17,0,0,0,3.16,3.16h155.07a3.17,3.17,0,0,0,3.16-3.16V375.7a3.17,3.17,0,0,0-3.16-3.16Z"/><path class="cls-1" d="M1114.83,564.88h-52a8.29,8.29,0,0,1-8.29-8.29V484.18a8.29,8.29,0,0,1,8.29-8.29h52a8.29,8.29,0,0,1,8.29,8.29v72.41A8.29,8.29,0,0,1,1114.83,564.88Zm-43.66-16.58h35.37V492.47h-35.37Z"/><path class="cls-1" d="M1192.21,564.88h-52a8.29,8.29,0,0,1-8.29-8.29V484.18a8.29,8.29,0,0,1,8.29-8.29h52a8.29,8.29,0,0,1,8.29,8.29v72.41A8.29,8.29,0,0,1,1192.21,564.88Zm-43.66-16.58h35.37V492.47h-35.37Z"/><path class="cls-1" d="M1114.83,469.81h-52a8.29,8.29,0,0,1-8.29-8.29V389.11a8.29,8.29,0,0,1,8.29-8.29h52a8.29,8.29,0,0,1,8.29,8.29v72.41A8.29,8.29,0,0,1,1114.83,469.81Zm-43.66-16.58h35.37V397.4h-35.37Z"/><path class="cls-1" d="M1192.21,469.81h-52a8.29,8.29,0,0,1-8.29-8.29V389.11a8.29,8.29,0,0,1,8.29-8.29h52a8.29,8.29,0,0,1,8.29,8.29v72.41A8.29,8.29,0,0,1,1192.21,469.81Zm-43.66-16.58h35.37V397.4h-35.37Z"/><path class="cls-1" d="M884.5,589.93H729.43a19.77,19.77,0,0,1-19.75-19.75V376.8a19.77,19.77,0,0,1,19.75-19.75H884.5a19.77,19.77,0,0,1,19.75,19.75V570.19A19.77,19.77,0,0,1,884.5,589.93ZM729.43,373.64a3.17,3.17,0,0,0-3.16,3.16V570.19a3.17,3.17,0,0,0,3.16,3.16H884.5a3.17,3.17,0,0,0,3.16-3.16V376.8a3.17,3.17,0,0,0-3.16-3.16Z"/><path class="cls-1" d="M794.25,566h-52a8.29,8.29,0,0,1-8.29-8.29V485.29A8.29,8.29,0,0,1,742.3,477h52a8.29,8.29,0,0,1,8.29,8.29v72.41A8.29,8.29,0,0,1,794.25,566ZM750.59,549.4H786V493.58H750.59Z"/><path class="cls-1" d="M871.63,566h-52a8.29,8.29,0,0,1-8.29-8.29V485.29a8.29,8.29,0,0,1,8.29-8.29h52a8.29,8.29,0,0,1,8.29,8.29v72.41A8.29,8.29,0,0,1,871.63,566ZM828,549.4h35.37V493.58H828Z"/><path class="cls-1" d="M794.25,470.92h-52a8.29,8.29,0,0,1-8.29-8.29V390.22a8.29,8.29,0,0,1,8.29-8.29h52a8.29,8.29,0,0,1,8.29,8.29v72.41A8.29,8.29,0,0,1,794.25,470.92Zm-43.66-16.58H786V398.51H750.59Z"/><path class="cls-1" d="M871.63,470.92h-52a8.29,8.29,0,0,1-8.29-8.29V390.22a8.29,8.29,0,0,1,8.29-8.29h52a8.29,8.29,0,0,1,8.29,8.29v72.41A8.29,8.29,0,0,1,871.63,470.92ZM828,454.33h35.37V398.51H828Z"/><path class="cls-1" d="M884.5,879.56H729.43a19.77,19.77,0,0,1-19.75-19.75V666.42a19.77,19.77,0,0,1,19.75-19.75H884.5a19.77,19.77,0,0,1,19.75,19.75V859.81A19.77,19.77,0,0,1,884.5,879.56ZM729.43,663.26a3.17,3.17,0,0,0-3.16,3.16V859.81a3.17,3.17,0,0,0,3.16,3.16H884.5a3.17,3.17,0,0,0,3.16-3.16V666.42a3.17,3.17,0,0,0-3.16-3.16Z"/><path class="cls-1" d="M794.25,855.61h-52a8.29,8.29,0,0,1-8.29-8.29V774.91a8.29,8.29,0,0,1,8.29-8.29h52a8.29,8.29,0,0,1,8.29,8.29v72.41A8.29,8.29,0,0,1,794.25,855.61ZM750.59,839H786V783.2H750.59Z"/><path class="cls-1" d="M871.63,855.61h-52a8.29,8.29,0,0,1-8.29-8.29V774.91a8.29,8.29,0,0,1,8.29-8.29h52a8.29,8.29,0,0,1,8.29,8.29v72.41A8.29,8.29,0,0,1,871.63,855.61ZM828,839h35.37V783.2H828Z"/><path class="cls-1" d="M794.25,760.54h-52a8.29,8.29,0,0,1-8.29-8.29V679.84a8.29,8.29,0,0,1,8.29-8.29h52a8.29,8.29,0,0,1,8.29,8.29v72.41A8.29,8.29,0,0,1,794.25,760.54ZM750.59,744H786V688.13H750.59Z"/><path class="cls-1" d="M871.63,760.54h-52a8.29,8.29,0,0,1-8.29-8.29V679.84a8.29,8.29,0,0,1,8.29-8.29h52a8.29,8.29,0,0,1,8.29,8.29v72.41A8.29,8.29,0,0,1,871.63,760.54ZM828,744h35.37V688.13H828Z"/><path class="cls-1" d="M325,928.56a8.29,8.29,0,0,1-8.28-8l-15-434.19a8.29,8.29,0,0,1,16-3.26l25,65.1,18.87-180.27a8.29,8.29,0,0,1,16.41-.58l37.78,213.37,56.31-123A8.29,8.29,0,0,1,488,461.31l-10,459.14a8.29,8.29,0,1,1-16.58-.36l9.11-419L419.92,611.8a8.29,8.29,0,0,1-15.7-2L372.07,428.27l-16.32,156a8.29,8.29,0,0,1-16,2.11l-19.7-51.23L333.33,920a8.29,8.29,0,0,1-8,8.57Z"/><rect class="cls-3" x="1237.53" y="16.58" width="107.79" height="48.09"/><rect class="cls-3" x="1237.53" y="81.25" width="107.79" height="42.56"/><path class="cls-3" d="M1353.6,140.39H1229.23a8.29,8.29,0,0,1-8.29-8.29V81.25H752.32L590.45,283h1077L1505.53,81.25H1361.9V132.1A8.29,8.29,0,0,1,1353.6,140.39Z"/><path class="cls-1" d="M1691.15,286.09,1516,67.77a8.29,8.29,0,0,0-6.47-3.1H1361.9V81.25h143.64L1667.4,283h-1077L752.32,81.25h468.63V64.67H748.34a8.29,8.29,0,0,0-6.47,3.1L566.7,286.09a8.29,8.29,0,0,0,6.47,13.48H1684.68a8.29,8.29,0,0,0,6.47-13.48Z"/><path class="cls-1" d="M1237.53,16.58h107.79V64.67h16.58V8.29A8.29,8.29,0,0,0,1353.6,0H1229.23a8.29,8.29,0,0,0-8.29,8.29V64.67h16.58Z"/><path class="cls-1" d="M1345.31,123.81H1237.53V81.25h-16.58V132.1a8.29,8.29,0,0,0,8.29,8.29H1353.6a8.29,8.29,0,0,0,8.29-8.29V81.25h-16.58Z"/><rect class="cls-1" x="1345.31" y="64.67" width="16.58" height="16.58"/><rect class="cls-1" x="1220.94" y="64.67" width="16.58" height="16.58"/><path class="cls-1" d="M1865.42,699.74a229.91,229.91,0,0,1-187.32-97,8.29,8.29,0,1,1,13.53-9.58,213.09,213.09,0,0,0,206.78,87.42A8.29,8.29,0,0,1,1901,697,231.79,231.79,0,0,1,1865.42,699.74Z"/><path class="cls-1" id="lasttree" d="M2150.62,699.74l-2.78,0h-.65a8.29,8.29,0,0,1,.12-16.58h.79l2.53,0c117.34,0,212.8-95.46,212.8-212.8a210.55,210.55,0,0,0-22.72-95.75,8.29,8.29,0,0,1,0-7.47,210.55,210.55,0,0,0,22.72-95.75c0-117.34-95.46-212.8-212.8-212.8a212.83,212.83,0,0,0-193.81,124.82,8.29,8.29,0,0,1-13.15,2.68A115,115,0,0,0,1751,270.83a116.67,116.67,0,0,0,.85,14,8.29,8.29,0,0,1-3.66,7.91,213.1,213.1,0,0,0-56.75,55.05,8.29,8.29,0,1,1-13.55-9.56,229.53,229.53,0,0,1,57-56.49c-.3-3.64-.45-7.3-.45-10.92,0-72.54,59-131.55,131.55-131.55a131.13,131.13,0,0,1,80.47,27.48A229.4,229.4,0,0,1,2150.62,42C2277.1,42,2380,144.9,2380,271.38a226.93,226.93,0,0,1-22.65,99.49A226.93,226.93,0,0,1,2380,470.36C2380,596.84,2277.1,699.74,2150.62,699.74Z"/><path class="cls-1" d="M2102.68,926.35a8.29,8.29,0,0,1-8.26-7.66l-23.85-312.44-6.7-99.73-40.36,122a8.29,8.29,0,0,1-16-1l-33.54-166L1950,918.5a8.29,8.29,0,0,1-16.56-.87l27.43-522.32a8.29,8.29,0,0,1,16.41-1.21l40.32,199.54,43.85-132.53a8.29,8.29,0,0,1,16.14,2l9.54,141.91L2111,917.43a8.29,8.29,0,0,1-7.64,8.9Z"/></g></g></svg>
